<svg id="visual" viewBox="0 0 960 540" width="960" height="540" xmlns="http://www.w3.org/2000/svg" xmlns:xlink="http://www.w3.org/1999/xlink" version="1.1"><rect width="960" height="540" fill="#111111"></rect><g><g transform="translate(188 224)"><path d="M0 -26.1L22.6 -13.1L22.6 13.1L0 26.1L-22.6 13.1L-22.6 -13.1Z" stroke="#01a299" fill="none" stroke-width="1"></path></g><g transform="translate(914 337)"><path d="M0 -24L20.8 -12L20.8 12L0 24L-20.8 12L-20.8 -12Z" stroke="#01a299" fill="none" stroke-width="1"></path></g><g transform="translate(899 224)"><path d="M0 -10L8.7 -5L8.7 5L0 10L-8.7 5L-8.7 -5Z" stroke="#01a299" fill="none" stroke-width="1"></path></g><g transform="translate(245 252)"><path d="M0 -14L12.1 -7L12.1 7L0 14L-12.1 7L-12.1 -7Z" stroke="#01a299" fill="none" stroke-width="1"></path></g><g transform="translate(378 409)"><path d="M0 -18L15.6 -9L15.6 9L0 18L-15.6 9L-15.6 -9Z" stroke="#01a299" fill="none" stroke-width="1"></path></g><g transform="translate(487 391)"><path d="M0 -22L19.1 -11L19.1 11L0 22L-19.1 11L-19.1 -11Z" stroke="#01a299" fill="none" stroke-width="1"></path></g><g transform="translate(768 370)"><path d="M0 -17L14.7 -8.5L14.7 8.5L0 17L-14.7 8.5L-14.7 -8.5Z" stroke="#01a299" fill="none" stroke-width="1"></path></g><g transform="translate(418 159)"><path d="M0 -14L12.1 -7L12.1 7L0 14L-12.1 7L-12.1 -7Z" stroke="#01a299" fill="none" stroke-width="1"></path></g><g transform="translate(567 318)"><path d="M0 -14L12.1 -7L12.1 7L0 14L-12.1 7L-12.1 -7Z" stroke="#01a299" fill="none" stroke-width="1"></path></g><g transform="translate(538 149)"><path d="M0 -11L9.5 -5.5L9.5 5.5L0 11L-9.5 5.5L-9.5 -5.5Z" stroke="#01a299" fill="none" stroke-width="1"></path></g><g transform="translate(467 457)"><path d="M0 -17L14.7 -8.5L14.7 8.5L0 17L-14.7 8.5L-14.7 -8.5Z" stroke="#01a299" fill="none" stroke-width="1"></path></g><g transform="translate(868 399)"><path d="M0 -22L19.1 -11L19.1 11L0 22L-19.1 11L-19.1 -11Z" stroke="#01a299" fill="none" stroke-width="1"></path></g><g transform="translate(849 148)"><path d="M0 -24L20.8 -12L20.8 12L0 24L-20.8 12L-20.8 -12Z" stroke="#01a299" fill="none" stroke-width="1"></path></g><g transform="translate(705 290)"><path d="M0 -9L7.8 -4.5L7.8 4.5L0 9L-7.8 4.5L-7.8 -4.5Z" stroke="#01a299" fill="none" stroke-width="1"></path></g><g transform="translate(421 53)"><path d="M0 -20L17.3 -10L17.3 10L0 20L-17.3 10L-17.3 -10Z" stroke="#01a299" fill="none" stroke-width="1"></path></g><g transform="translate(589 217)"><path d="M0 -22L19.1 -11L19.1 11L0 22L-19.1 11L-19.1 -11Z" stroke="#01a299" fill="none" stroke-width="1"></path></g><g transform="translate(93 535)"><path d="M0 -4L3.5 -2L3.5 2L0 4L-3.5 2L-3.5 -2Z" stroke="#01a299" fill="none" stroke-width="1"></path></g><g transform="translate(887 88)"><path d="M0 -6L5.2 -3L5.2 3L0 6L-5.2 3L-5.2 -3Z" stroke="#01a299" fill="none" stroke-width="1"></path></g><g transform="translate(753 320)"><path d="M0 -3L2.6 -1.5L2.6 1.5L0 3L-2.6 1.5L-2.6 -1.5Z" stroke="#01a299" fill="none" stroke-width="1"></path></g><g transform="translate(479 309)"><path d="M0 -19L16.5 -9.5L16.5 9.5L0 19L-16.5 9.5L-16.5 -9.5Z" stroke="#01a299" fill="none" stroke-width="1"></path></g><g transform="translate(620 3)"><path d="M0 -24L20.8 -12L20.8 12L0 24L-20.8 12L-20.8 -12Z" stroke="#01a299" fill="none" stroke-width="1"></path></g><g transform="translate(17 8)"><path d="M0 -19L16.5 -9.5L16.5 9.5L0 19L-16.5 9.5L-16.5 -9.5Z" stroke="#01a299" fill="none" stroke-width="1"></path></g><g transform="translate(652 526)"><path d="M0 -23L19.9 -11.5L19.9 11.5L0 23L-19.9 11.5L-19.9 -11.5Z" stroke="#01a299" fill="none" stroke-width="1"></path></g><g transform="translate(308 192)"><path d="M0 -18L15.6 -9L15.6 9L0 18L-15.6 9L-15.6 -9Z" stroke="#01a299" fill="none" stroke-width="1"></path></g><g transform="translate(451 247)"><path d="M0 -24L20.8 -12L20.8 12L0 24L-20.8 12L-20.8 -12Z" stroke="#01a299" fill="none" stroke-width="1"></path></g><g transform="translate(649 307)"><path d="M0 -6L5.2 -3L5.2 3L0 6L-5.2 3L-5.2 -3Z" stroke="#01a299" fill="none" stroke-width="1"></path></g><g transform="translate(338 481)"><path d="M0 -15L13 -7.5L13 7.5L0 15L-13 7.5L-13 -7.5Z" stroke="#01a299" fill="none" stroke-width="1"></path></g><g transform="translate(727 162)"><path d="M0 -6L5.2 -3L5.2 3L0 6L-5.2 3L-5.2 -3Z" stroke="#01a299" fill="none" stroke-width="1"></path></g><g transform="translate(329 69)"><path d="M0 -8L6.9 -4L6.9 4L0 8L-6.9 4L-6.9 -4Z" stroke="#01a299" fill="none" stroke-width="1"></path></g><g transform="translate(188 318)"><path d="M0 -5L4.3 -2.5L4.3 2.5L0 5L-4.3 2.5L-4.3 -2.5Z" stroke="#01a299" fill="none" stroke-width="1"></path></g><g transform="translate(194 60)"><path d="M0 -5L4.3 -2.5L4.3 2.5L0 5L-4.3 2.5L-4.3 -2.5Z" stroke="#01a299" fill="none" stroke-width="1"></path></g><g transform="translate(553 58)"><path d="M0 -9L7.8 -4.5L7.8 4.5L0 9L-7.8 4.5L-7.8 -4.5Z" stroke="#01a299" fill="none" stroke-width="1"></path></g><g transform="translate(303 357)"><path d="M0 -16L13.9 -8L13.9 8L0 16L-13.9 8L-13.9 -8Z" stroke="#01a299" fill="none" stroke-width="1"></path></g><g transform="translate(706 516)"><path d="M0 -20L17.3 -10L17.3 10L0 20L-17.3 10L-17.3 -10Z" stroke="#01a299" fill="none" stroke-width="1"></path></g><g transform="translate(931 390)"><path d="M0 -24L20.8 -12L20.8 12L0 24L-20.8 12L-20.8 -12Z" stroke="#01a299" fill="none" stroke-width="1"></path></g><g transform="translate(337 134)"><path d="M0 -16L13.9 -8L13.9 8L0 16L-13.9 8L-13.9 -8Z" stroke="#01a299" fill="none" stroke-width="1"></path></g><g transform="translate(48 389)"><path d="M0 -25L21.7 -12.5L21.7 12.5L0 25L-21.7 12.5L-21.7 -12.5Z" stroke="#01a299" fill="none" stroke-width="1"></path></g><g transform="translate(501 194)"><path d="M0 -20L17.3 -10L17.3 10L0 20L-17.3 10L-17.3 -10Z" stroke="#01a299" fill="none" stroke-width="1"></path></g><g transform="translate(546 1)"><path d="M0 -13L11.3 -6.5L11.3 6.5L0 13L-11.3 6.5L-11.3 -6.5Z" stroke="#01a299" fill="none" stroke-width="1"></path></g><g transform="translate(863 284)"><path d="M0 -12L10.4 -6L10.4 6L0 12L-10.4 6L-10.4 -6Z" stroke="#01a299" fill="none" stroke-width="1"></path></g><g transform="translate(87 428)"><path d="M0 -18L15.6 -9L15.6 9L0 18L-15.6 9L-15.6 -9Z" stroke="#01a299" fill="none" stroke-width="1"></path></g><g transform="translate(219 495)"><path d="M0 -7L6.1 -3.5L6.1 3.5L0 7L-6.1 3.5L-6.1 -3.5Z" stroke="#01a299" fill="none" stroke-width="1"></path></g><g transform="translate(676 138)"><path d="M0 -22L19.1 -11L19.1 11L0 22L-19.1 11L-19.1 -11Z" stroke="#01a299" fill="none" stroke-width="1"></path></g><g transform="translate(590 386)"><path d="M0 -9L7.8 -4.5L7.8 4.5L0 9L-7.8 4.5L-7.8 -4.5Z" stroke="#01a299" fill="none" stroke-width="1"></path></g><g transform="translate(602 104)"><path d="M0 -24L20.8 -12L20.8 12L0 24L-20.8 12L-20.8 -12Z" stroke="#01a299" fill="none" stroke-width="1"></path></g><g transform="translate(30 178)"><path d="M0 -9L7.8 -4.5L7.8 4.5L0 9L-7.8 4.5L-7.8 -4.5Z" stroke="#01a299" fill="none" stroke-width="1"></path></g><g transform="translate(18 342)"><path d="M0 -3L2.6 -1.5L2.6 1.5L0 3L-2.6 1.5L-2.6 -1.5Z" stroke="#01a299" fill="none" stroke-width="1"></path></g><g transform="translate(127 357)"><path d="M0 -8L6.9 -4L6.9 4L0 8L-6.9 4L-6.9 -4Z" stroke="#01a299" fill="none" stroke-width="1"></path></g><g transform="translate(426 106)"><path d="M0 -21L18.2 -10.5L18.2 10.5L0 21L-18.2 10.5L-18.2 -10.5Z" stroke="#01a299" fill="none" stroke-width="1"></path></g><g transform="translate(1 504)"><path d="M0 -11L9.5 -5.5L9.5 5.5L0 11L-9.5 5.5L-9.5 -5.5Z" stroke="#01a299" fill="none" stroke-width="1"></path></g><g transform="translate(726 442)"><path d="M0 -6L5.2 -3L5.2 3L0 6L-5.2 3L-5.2 -3Z" stroke="#01a299" fill="none" stroke-width="1"></path></g><g transform="translate(91 67)"><path d="M0 -24L20.8 -12L20.8 12L0 24L-20.8 12L-20.8 -12Z" stroke="#01a299" fill="none" stroke-width="1"></path></g><g transform="translate(693 386)"><path d="M0 -25L21.7 -12.5L21.7 12.5L0 25L-21.7 12.5L-21.7 -12.5Z" stroke="#01a299" fill="none" stroke-width="1"></path></g><g transform="translate(907 509)"><path d="M0 -8L6.9 -4L6.9 4L0 8L-6.9 4L-6.9 -4Z" stroke="#01a299" fill="none" stroke-width="1"></path></g><g transform="translate(736 28)"><path d="M0 -9L7.8 -4.5L7.8 4.5L0 9L-7.8 4.5L-7.8 -4.5Z" stroke="#01a299" fill="none" stroke-width="1"></path></g><g transform="translate(35 118)"><path d="M0 -11L9.5 -5.5L9.5 5.5L0 11L-9.5 5.5L-9.5 -5.5Z" stroke="#01a299" fill="none" stroke-width="1"></path></g><g transform="translate(595 516)"><path d="M0 -20L17.3 -10L17.3 10L0 20L-17.3 10L-17.3 -10Z" stroke="#01a299" fill="none" stroke-width="1"></path></g><g transform="translate(207 160)"><path d="M0 -17L14.7 -8.5L14.7 8.5L0 17L-14.7 8.5L-14.7 -8.5Z" stroke="#01a299" fill="none" stroke-width="1"></path></g><g transform="translate(422 313)"><path d="M0 -11L9.5 -5.5L9.5 5.5L0 11L-9.5 5.5L-9.5 -5.5Z" stroke="#01a299" fill="none" stroke-width="1"></path></g><g transform="translate(179 530)"><path d="M0 -7L6.1 -3.5L6.1 3.5L0 7L-6.1 3.5L-6.1 -3.5Z" stroke="#01a299" fill="none" stroke-width="1"></path></g><g transform="translate(281 297)"><path d="M0 -6L5.2 -3L5.2 3L0 6L-5.2 3L-5.2 -3Z" stroke="#01a299" fill="none" stroke-width="1"></path></g><g transform="translate(120 18)"><path d="M0 -10L8.7 -5L8.7 5L0 10L-8.7 5L-8.7 -5Z" stroke="#01a299" fill="none" stroke-width="1"></path></g><g transform="translate(135 466)"><path d="M0 -22L19.1 -11L19.1 11L0 22L-19.1 11L-19.1 -11Z" stroke="#01a299" fill="none" stroke-width="1"></path></g><g transform="translate(896 16)"><path d="M0 -21L18.2 -10.5L18.2 10.5L0 21L-18.2 10.5L-18.2 -10.5Z" stroke="#01a299" fill="none" stroke-width="1"></path></g><g transform="translate(381 268)"><path d="M0 -5L4.3 -2.5L4.3 2.5L0 5L-4.3 2.5L-4.3 -2.5Z" stroke="#01a299" fill="none" stroke-width="1"></path></g><g transform="translate(484 53)"><path d="M0 -19L16.5 -9.5L16.5 9.5L0 19L-16.5 9.5L-16.5 -9.5Z" stroke="#01a299" fill="none" stroke-width="1"></path></g><g transform="translate(671 237)"><path d="M0 -12L10.4 -6L10.4 6L0 12L-10.4 6L-10.4 -6Z" stroke="#01a299" fill="none" stroke-width="1"></path></g><g transform="translate(842 61)"><path d="M0 -21L18.2 -10.5L18.2 10.5L0 21L-18.2 10.5L-18.2 -10.5Z" stroke="#01a299" fill="none" stroke-width="1"></path></g><g transform="translate(815 491)"><path d="M0 -11L9.5 -5.5L9.5 5.5L0 11L-9.5 5.5L-9.5 -5.5Z" stroke="#01a299" fill="none" stroke-width="1"></path></g><g transform="translate(137 276)"><path d="M0 -11L9.5 -5.5L9.5 5.5L0 11L-9.5 5.5L-9.5 -5.5Z" stroke="#01a299" fill="none" stroke-width="1"></path></g><g transform="translate(508 261)"><path d="M0 -23L19.9 -11.5L19.9 11.5L0 23L-19.9 11.5L-19.9 -11.5Z" stroke="#01a299" fill="none" stroke-width="1"></path></g><g transform="translate(634 461)"><path d="M0 -25L21.7 -12.5L21.7 12.5L0 25L-21.7 12.5L-21.7 -12.5Z" stroke="#01a299" fill="none" stroke-width="1"></path></g><g transform="translate(597 163)"><path d="M0 -7L6.1 -3.5L6.1 3.5L0 7L-6.1 3.5L-6.1 -3.5Z" stroke="#01a299" fill="none" stroke-width="1"></path></g><g transform="translate(149 135)"><path d="M0 -23L19.9 -11.5L19.9 11.5L0 23L-19.9 11.5L-19.9 -11.5Z" stroke="#01a299" fill="none" stroke-width="1"></path></g><g transform="translate(694 64)"><path d="M0 -22L19.1 -11L19.1 11L0 22L-19.1 11L-19.1 -11Z" stroke="#01a299" fill="none" stroke-width="1"></path></g><g transform="translate(874 458)"><path d="M0 -21L18.2 -10.5L18.2 10.5L0 21L-18.2 10.5L-18.2 -10.5Z" stroke="#01a299" fill="none" stroke-width="1"></path></g><g transform="translate(957 236)"><path d="M0 -10L8.7 -5L8.7 5L0 10L-8.7 5L-8.7 -5Z" stroke="#01a299" fill="none" stroke-width="1"></path></g><g transform="translate(277 497)"><path d="M0 -20L17.3 -10L17.3 10L0 20L-17.3 10L-17.3 -10Z" stroke="#01a299" fill="none" stroke-width="1"></path></g><g transform="translate(401 479)"><path d="M0 -17L14.7 -8.5L14.7 8.5L0 17L-14.7 8.5L-14.7 -8.5Z" stroke="#01a299" fill="none" stroke-width="1"></path></g><g transform="translate(809 431)"><path d="M0 -14L12.1 -7L12.1 7L0 14L-12.1 7L-12.1 -7Z" stroke="#01a299" fill="none" stroke-width="1"></path></g><g transform="translate(783 170)"><path d="M0 -7L6.1 -3.5L6.1 3.5L0 7L-6.1 3.5L-6.1 -3.5Z" stroke="#01a299" fill="none" stroke-width="1"></path></g><g transform="translate(117 196)"><path d="M0 -24L20.8 -12L20.8 12L0 24L-20.8 12L-20.8 -12Z" stroke="#01a299" fill="none" stroke-width="1"></path></g><g transform="translate(537 504)"><path d="M0 -16L13.9 -8L13.9 8L0 16L-13.9 8L-13.9 -8Z" stroke="#01a299" fill="none" stroke-width="1"></path></g><g transform="translate(800 26)"><path d="M0 -18L15.6 -9L15.6 9L0 18L-15.6 9L-15.6 -9Z" stroke="#01a299" fill="none" stroke-width="1"></path></g><g transform="translate(277 102)"><path d="M0 -21L18.2 -10.5L18.2 10.5L0 21L-18.2 10.5L-18.2 -10.5Z" stroke="#01a299" fill="none" stroke-width="1"></path></g><g transform="translate(396 207)"><path d="M0 -9L7.8 -4.5L7.8 4.5L0 9L-7.8 4.5L-7.8 -4.5Z" stroke="#01a299" fill="none" stroke-width="1"></path></g><g transform="translate(941 447)"><path d="M0 -12L10.4 -6L10.4 6L0 12L-10.4 6L-10.4 -6Z" stroke="#01a299" fill="none" stroke-width="1"></path></g><g transform="translate(376 347)"><path d="M0 -8L6.9 -4L6.9 4L0 8L-6.9 4L-6.9 -4Z" stroke="#01a299" fill="none" stroke-width="1"></path></g><g transform="translate(776 230)"><path d="M0 -18L15.6 -9L15.6 9L0 18L-15.6 9L-15.6 -9Z" stroke="#01a299" fill="none" stroke-width="1"></path></g><g transform="translate(845 534)"><path d="M0 -17L14.7 -8.5L14.7 8.5L0 17L-14.7 8.5L-14.7 -8.5Z" stroke="#01a299" fill="none" stroke-width="1"></path></g><g transform="translate(1 419)"><path d="M0 -20L17.3 -10L17.3 10L0 20L-17.3 10L-17.3 -10Z" stroke="#01a299" fill="none" stroke-width="1"></path></g><g transform="translate(200 422)"><path d="M0 -5L4.3 -2.5L4.3 2.5L0 5L-4.3 2.5L-4.3 -2.5Z" stroke="#01a299" fill="none" stroke-width="1"></path></g><g transform="translate(768 104)"><path d="M0 -10L8.7 -5L8.7 5L0 10L-8.7 5L-8.7 -5Z" stroke="#01a299" fill="none" stroke-width="1"></path></g><g transform="translate(816 336)"><path d="M0 -5L4.3 -2.5L4.3 2.5L0 5L-4.3 2.5L-4.3 -2.5Z" stroke="#01a299" fill="none" stroke-width="1"></path></g><g transform="translate(269 441)"><path d="M0 -12L10.4 -6L10.4 6L0 12L-10.4 6L-10.4 -6Z" stroke="#01a299" fill="none" stroke-width="1"></path></g><g transform="translate(425 377)"><path d="M0 -20L17.3 -10L17.3 10L0 20L-17.3 10L-17.3 -10Z" stroke="#01a299" fill="none" stroke-width="1"></path></g><g transform="translate(257 37)"><path d="M0 -14L12.1 -7L12.1 7L0 14L-12.1 7L-12.1 -7Z" stroke="#01a299" fill="none" stroke-width="1"></path></g><g transform="translate(944 47)"><path d="M0 -23L19.9 -11.5L19.9 11.5L0 23L-19.9 11.5L-19.9 -11.5Z" stroke="#01a299" fill="none" stroke-width="1"></path></g><g transform="translate(540 401)"><path d="M0 -21L18.2 -10.5L18.2 10.5L0 21L-18.2 10.5L-18.2 -10.5Z" stroke="#01a299" fill="none" stroke-width="1"></path></g><g transform="translate(369 538)"><path d="M0 -15L13 -7.5L13 7.5L0 15L-13 7.5L-13 -7.5Z" stroke="#01a299" fill="none" stroke-width="1"></path></g><g transform="translate(303 10)"><path d="M0 -7L6.1 -3.5L6.1 3.5L0 7L-6.1 3.5L-6.1 -3.5Z" stroke="#01a299" fill="none" stroke-width="1"></path></g><g transform="translate(241 366)"><path d="M0 -20L17.3 -10L17.3 10L0 20L-17.3 10L-17.3 -10Z" stroke="#01a299" fill="none" stroke-width="1"></path></g><g transform="translate(950 167)"><path d="M0 -22L19.1 -11L19.1 11L0 22L-19.1 11L-19.1 -11Z" stroke="#01a299" fill="none" stroke-width="1"></path></g><g transform="translate(489 535)"><path d="M0 -9L7.8 -4.5L7.8 4.5L0 9L-7.8 4.5L-7.8 -4.5Z" stroke="#01a299" fill="none" stroke-width="1"></path></g><g transform="translate(760 503)"><path d="M0 -15L13 -7.5L13 7.5L0 15L-13 7.5L-13 -7.5Z" stroke="#01a299" fill="none" stroke-width="1"></path></g><g transform="translate(725 216)"><path d="M0 -10L8.7 -5L8.7 5L0 10L-8.7 5L-8.7 -5Z" stroke="#01a299" fill="none" stroke-width="1"></path></g><g transform="translate(73 295)"><path d="M0 -5L4.3 -2.5L4.3 2.5L0 5L-4.3 2.5L-4.3 -2.5Z" stroke="#01a299" fill="none" stroke-width="1"></path></g><g transform="translate(641 63)"><path d="M0 -21L18.2 -10.5L18.2 10.5L0 21L-18.2 10.5L-18.2 -10.5Z" stroke="#01a299" fill="none" stroke-width="1"></path></g><g transform="translate(55 495)"><path d="M0 -20L17.3 -10L17.3 10L0 20L-17.3 10L-17.3 -10Z" stroke="#01a299" fill="none" stroke-width="1"></path></g><g transform="translate(250 192)"><path d="M0 -20L17.3 -10L17.3 10L0 20L-17.3 10L-17.3 -10Z" stroke="#01a299" fill="none" stroke-width="1"></path></g><g transform="translate(654 186)"><path d="M0 -4L3.5 -2L3.5 2L0 4L-3.5 2L-3.5 -2Z" stroke="#01a299" fill="none" stroke-width="1"></path></g><g transform="translate(22 67)"><path d="M0 -23L19.9 -11.5L19.9 11.5L0 23L-19.9 11.5L-19.9 -11.5Z" stroke="#01a299" fill="none" stroke-width="1"></path></g><g transform="translate(70 235)"><path d="M0 -4L3.5 -2L3.5 2L0 4L-3.5 2L-3.5 -2Z" stroke="#01a299" fill="none" stroke-width="1"></path></g><g transform="translate(576 456)"><path d="M0 -12L10.4 -6L10.4 6L0 12L-10.4 6L-10.4 -6Z" stroke="#01a299" fill="none" stroke-width="1"></path></g><g transform="translate(370 1)"><path d="M0 -24L20.8 -12L20.8 12L0 24L-20.8 12L-20.8 -12Z" stroke="#01a299" fill="none" stroke-width="1"></path></g><g transform="translate(329 429)"><path d="M0 -4L3.5 -2L3.5 2L0 4L-3.5 2L-3.5 -2Z" stroke="#01a299" fill="none" stroke-width="1"></path></g><g transform="translate(831 208)"><path d="M0 -16L13.9 -8L13.9 8L0 16L-13.9 8L-13.9 -8Z" stroke="#01a299" fill="none" stroke-width="1"></path></g><g transform="translate(616 267)"><path d="M0 -10L8.7 -5L8.7 5L0 10L-8.7 5L-8.7 -5Z" stroke="#01a299" fill="none" stroke-width="1"></path></g><g transform="translate(23 264)"><path d="M0 -3L2.6 -1.5L2.6 1.5L0 3L-2.6 1.5L-2.6 -1.5Z" stroke="#01a299" fill="none" stroke-width="1"></path></g><g transform="translate(938 103)"><path d="M0 -14L12.1 -7L12.1 7L0 14L-12.1 7L-12.1 -7Z" stroke="#01a299" fill="none" stroke-width="1"></path></g><g transform="translate(919 283)"><path d="M0 -20L17.3 -10L17.3 10L0 20L-17.3 10L-17.3 -10Z" stroke="#01a299" fill="none" stroke-width="1"></path></g><g transform="translate(96 144)"><path d="M0 -3L2.6 -1.5L2.6 1.5L0 3L-2.6 1.5L-2.6 -1.5Z" stroke="#01a299" fill="none" stroke-width="1"></path></g><g transform="translate(332 244)"><path d="M0 -19L16.5 -9.5L16.5 9.5L0 19L-16.5 9.5L-16.5 -9.5Z" stroke="#01a299" fill="none" stroke-width="1"></path></g><g transform="translate(505 106)"><path d="M0 -22L19.1 -11L19.1 11L0 22L-19.1 11L-19.1 -11Z" stroke="#01a299" fill="none" stroke-width="1"></path></g><g transform="translate(206 6)"><path d="M0 -15L13 -7.5L13 7.5L0 15L-13 7.5L-13 -7.5Z" stroke="#01a299" fill="none" stroke-width="1"></path></g><g transform="translate(430 525)"><path d="M0 -3L2.6 -1.5L2.6 1.5L0 3L-2.6 1.5L-2.6 -1.5Z" stroke="#01a299" fill="none" stroke-width="1"></path></g><g transform="translate(334 309)"><path d="M0 -21L18.2 -10.5L18.2 10.5L0 21L-18.2 10.5L-18.2 -10.5Z" stroke="#01a299" fill="none" stroke-width="1"></path></g><g transform="translate(959 497)"><path d="M0 -25L21.7 -12.5L21.7 12.5L0 25L-21.7 12.5L-21.7 -12.5Z" stroke="#01a299" fill="none" stroke-width="1"></path></g><g transform="translate(796 285)"><path d="M0 -4L3.5 -2L3.5 2L0 4L-3.5 2L-3.5 -2Z" stroke="#01a299" fill="none" stroke-width="1"></path></g><g transform="translate(897 170)"><path d="M0 -12L10.4 -6L10.4 6L0 12L-10.4 6L-10.4 -6Z" stroke="#01a299" fill="none" stroke-width="1"></path></g><g transform="translate(523 347)"><path d="M0 -5L4.3 -2.5L4.3 2.5L0 5L-4.3 2.5L-4.3 -2.5Z" stroke="#01a299" fill="none" stroke-width="1"></path></g><g transform="translate(672 14)"><path d="M0 -10L8.7 -5L8.7 5L0 10L-8.7 5L-8.7 -5Z" stroke="#01a299" fill="none" stroke-width="1"></path></g><g transform="translate(470 147)"><path d="M0 -20L17.3 -10L17.3 10L0 20L-17.3 10L-17.3 -10Z" stroke="#01a299" fill="none" stroke-width="1"></path></g><g transform="translate(138 411)"><path d="M0 -5L4.3 -2.5L4.3 2.5L0 5L-4.3 2.5L-4.3 -2.5Z" stroke="#01a299" fill="none" stroke-width="1"></path></g><g transform="translate(645 363)"><path d="M0 -7L6.1 -3.5L6.1 3.5L0 7L-6.1 3.5L-6.1 -3.5Z" stroke="#01a299" fill="none" stroke-width="1"></path></g><g transform="translate(520 453)"><path d="M0 -24L20.8 -12L20.8 12L0 24L-20.8 12L-20.8 -12Z" stroke="#01a299" fill="none" stroke-width="1"></path></g><g transform="translate(316 537)"><path d="M0 -21L18.2 -10.5L18.2 10.5L0 21L-18.2 10.5L-18.2 -10.5Z" stroke="#01a299" fill="none" stroke-width="1"></path></g><g transform="translate(453 8)"><path d="M0 -8L6.9 -4L6.9 4L0 8L-6.9 4L-6.9 -4Z" stroke="#01a299" fill="none" stroke-width="1"></path></g><g transform="translate(144 74)"><path d="M0 -5L4.3 -2.5L4.3 2.5L0 5L-4.3 2.5L-4.3 -2.5Z" stroke="#01a299" fill="none" stroke-width="1"></path></g><g transform="translate(216 108)"><path d="M0 -13L11.3 -6.5L11.3 6.5L0 13L-11.3 6.5L-11.3 -6.5Z" stroke="#01a299" fill="none" stroke-width="1"></path></g></g></svg>